<?xml version="1.0" standalone="no"?>
<!DOCTYPE svg PUBLIC "-//W3C//DTD SVG 20010904//EN"
 "http://www.w3.org/TR/2001/REC-SVG-20010904/DTD/svg10.dtd">
<svg version="1.0" xmlns="http://www.w3.org/2000/svg"
 width="210.000000pt" height="121.000000pt" viewBox="0 0 210.000000 121.000000"
 preserveAspectRatio="xMidYMid meet">

<g transform="translate(0.000000,121.000000) scale(0.100000,-0.100000)"
fill="#000000" stroke="none">
<path d="M0 605 l0 -605 1050 0 1050 0 0 605 0 605 -1050 0 -1050 0 0 -605z
m909 460 c53 -27 81 -71 81 -126 l0 -49 -50 0 c-49 0 -50 1 -50 29 0 61 0 61
-341 61 -195 0 -318 -4 -330 -10 -17 -10 -19 -22 -19 -140 0 -118 2 -130 19
-140 13 -6 139 -10 341 -10 346 0 349 0 400 -55 25 -26 25 -29 25 -195 0 -166
0 -169 -25 -195 -51 -55 -52 -55 -416 -55 -327 0 -337 1 -375 22 -44 25 -79
85 -79 137 l0 32 53 -3 c50 -3 52 -4 55 -33 6 -54 9 -55 348 -55 271 0 315 2
328 16 23 23 23 245 0 268 -13 14 -58 16 -342 16 -373 0 -377 1 -419 80 -20
38 -23 57 -23 168 0 148 15 194 77 230 37 21 47 22 376 22 278 0 343 -3 366
-15z m1041 -6 c69 -39 80 -73 80 -258 0 -173 -7 -207 -51 -248 -40 -37 -99
-42 -431 -43 l-318 0 0 -165 0 -165 -50 0 -50 0 0 450 0 450 391 0 c380 0 392
-1 429 -21z"/>
<path d="M1252 964 c-21 -14 -22 -22 -22 -160 0 -81 5 -154 10 -165 10 -18 25
-19 333 -19 185 0 328 4 337 10 12 7 16 39 18 159 5 210 39 191 -346 191 -262
0 -311 -2 -330 -16z"/>
</g>
</svg>
